<svg width="34" height="10" viewBox="0 0 34 10" fill="none" xmlns="http://www.w3.org/2000/svg">
<path d="M0.492 0.599999H2.508C3.164 0.599999 3.656 0.776 3.984 1.128C4.312 1.48 4.476 1.996 4.476 2.676V6.924C4.476 7.604 4.312 8.12 3.984 8.472C3.656 8.824 3.164 9 2.508 9H0.492V0.599999ZM2.484 7.8C2.7 7.8 2.864 7.736 2.976 7.608C3.096 7.48 3.156 7.272 3.156 6.984V2.616C3.156 2.328 3.096 2.12 2.976 1.992C2.864 1.864 2.7 1.8 2.484 1.8H1.812V7.8H2.484ZM5.367 0.599999H8.967V1.8H6.687V4.02H8.499V5.22H6.687V7.8H8.967V9H5.367V0.599999ZM9.72638 0.599999H11.6704C12.3264 0.599999 12.8184 0.776 13.1464 1.128C13.4744 1.48 13.6384 1.996 13.6384 2.676V3.504C13.6384 4.184 13.4744 4.7 13.1464 5.052C12.8184 5.404 12.3264 5.58 11.6704 5.58H11.0464V9H9.72638V0.599999ZM11.6704 4.38C11.8864 4.38 12.0464 4.32 12.1504 4.2C12.2624 4.08 12.3184 3.876 12.3184 3.588V2.592C12.3184 2.304 12.2624 2.1 12.1504 1.98C12.0464 1.86 11.8864 1.8 11.6704 1.8H11.0464V4.38H11.6704ZM16.2633 9.12C15.6153 9.12 15.1193 8.936 14.7753 8.568C14.4313 8.2 14.2593 7.68 14.2593 7.008V2.592C14.2593 1.92 14.4313 1.4 14.7753 1.032C15.1193 0.664 15.6153 0.48 16.2633 0.48C16.9113 0.48 17.4073 0.664 17.7513 1.032C18.0953 1.4 18.2673 1.92 18.2673 2.592V7.008C18.2673 7.68 18.0953 8.2 17.7513 8.568C17.4073 8.936 16.9113 9.12 16.2633 9.12ZM16.2633 7.92C16.7193 7.92 16.9473 7.644 16.9473 7.092V2.508C16.9473 1.956 16.7193 1.68 16.2633 1.68C15.8073 1.68 15.5793 1.956 15.5793 2.508V7.092C15.5793 7.644 15.8073 7.92 16.2633 7.92ZM20.876 9.12C20.236 9.12 19.752 8.94 19.424 8.58C19.096 8.212 18.932 7.688 18.932 7.008V6.528H20.18V7.104C20.18 7.648 20.408 7.92 20.864 7.92C21.088 7.92 21.256 7.856 21.368 7.728C21.488 7.592 21.548 7.376 21.548 7.08C21.548 6.728 21.468 6.42 21.308 6.156C21.148 5.884 20.852 5.56 20.42 5.184C19.876 4.704 19.496 4.272 19.28 3.888C19.064 3.496 18.956 3.056 18.956 2.568C18.956 1.904 19.124 1.392 19.46 1.032C19.796 0.664 20.284 0.48 20.924 0.48C21.556 0.48 22.032 0.664 22.352 1.032C22.68 1.392 22.844 1.912 22.844 2.592V2.94H21.596V2.508C21.596 2.22 21.54 2.012 21.428 1.884C21.316 1.748 21.152 1.68 20.936 1.68C20.496 1.68 20.276 1.948 20.276 2.484C20.276 2.788 20.356 3.072 20.516 3.336C20.684 3.6 20.984 3.92 21.416 4.296C21.968 4.776 22.348 5.212 22.556 5.604C22.764 5.996 22.868 6.456 22.868 6.984C22.868 7.672 22.696 8.2 22.352 8.568C22.016 8.936 21.524 9.12 20.876 9.12ZM23.6248 0.599999H24.9448V9H23.6248V0.599999ZM25.9334 0.599999H27.2534V7.8H29.4254V9H25.9334V0.599999ZM30.2157 5.424L28.6197 0.599999H30.0237L30.9237 3.684H30.9477L31.8477 0.599999H33.1317L31.5357 5.424V9H30.2157V5.424Z" fill="black"/>
</svg>
