<svg width="34" height="31" viewBox="0 0 34 31" fill="none" xmlns="http://www.w3.org/2000/svg">
<path d="M16.5 0V18M19.5 5C19.8905 5.39052 19.9477 5.5 20.5 5.5C21.0523 5.5 20.9477 5 21.5 5C22.0523 5 21.9477 5.5 22.5 5.5C23.0523 5.5 22.9477 5 23.5 5C24.0523 5 23.9477 5.5 24.5 5.5C25.0523 5.5 24.5 5 25.5 5M19.5 9C20.0858 9.19526 20.3825 9.5 21 9.5C21.6175 9.5 21.8887 8.91268 22.5 9C22.9322 9.06175 23.0738 9.40528 23.5 9.5C23.8812 9.58472 24.1188 9.58472 24.5 9.5C24.9262 9.40528 25.0738 9.09472 25.5 9C25.8812 8.91528 26.1188 8.91528 26.5 9C26.9262 9.09472 27.0738 9.40528 27.5 9.5C27.8812 9.58472 28.1188 9.58472 28.5 9.5C28.9262 9.40528 29.0678 9.06175 29.5 9C29.6933 8.97239 29.8067 8.97239 30 9M19.5 12.5C19.8905 12.6953 20.0738 12.9053 20.5 13C20.8812 13.0847 21.1188 13.0847 21.5 13C21.9262 12.9053 22.0634 12.5 22.5 12.5C22.9366 12.5 23.0634 13 23.5 13C23.9366 13 24.1095 12.6953 24.5 12.5C24.8905 12.3047 25.0647 11.9665 25.5 12C26.0507 12.0424 25.9493 12.9576 26.5 13C26.9353 13.0335 27.1095 12.6953 27.5 12.5L28.5 12M30 12.5C30.1953 12.3047 30.238 12.0873 30.5 12C30.9142 11.8619 31.0634 12.5 31.5 12.5C31.9366 12.5 32.0634 12 32.5 12C32.9366 12 33.5 12.5 33.5 12.5M27.5 5.5H28.5C28.8905 5.5 29.1095 5 29.5 5C29.8905 5 30.1188 5.58472 30.5 5.5C30.9262 5.40528 31.0634 5 31.5 5C31.9366 5 32.0738 5.40528 32.5 5.5C32.8812 5.58472 33.1188 5.58472 33.5 5.5M14 5.5V13.5C14 13.5 12.4763 12.5407 11.5 12.5C8.76633 12.3861 7.24531 13.7979 4.5 13.5C3.51016 13.3926 2 13 2 13V5C2 5 3.47566 5.76247 4.5 6C7.00189 6.58015 8.43716 4.83297 11 5C12.1852 5.07725 14 5.5 14 5.5ZM8 8C8.55228 8 9 8.44771 9 9C9 9.55229 8.55228 10 8 10C7.44772 10 7 9.55229 7 9C7 8.44771 7.44772 8 8 8Z" stroke="black" stroke-width="0.5"/>
<path d="M0.492 19.6H2.508C3.164 19.6 3.656 19.776 3.984 20.128C4.312 20.48 4.476 20.996 4.476 21.676V25.924C4.476 26.604 4.312 27.12 3.984 27.472C3.656 27.824 3.164 28 2.508 28H0.492V19.6ZM2.484 26.8C2.7 26.8 2.864 26.736 2.976 26.608C3.096 26.48 3.156 26.272 3.156 25.984V21.616C3.156 21.328 3.096 21.12 2.976 20.992C2.864 20.864 2.7 20.8 2.484 20.8H1.812V26.8H2.484ZM5.367 19.6H8.967V20.8H6.687V23.02H8.499V24.22H6.687V26.8H8.967V28H5.367V19.6ZM9.72638 19.6H11.6704C12.3264 19.6 12.8184 19.776 13.1464 20.128C13.4744 20.48 13.6384 20.996 13.6384 21.676V22.504C13.6384 23.184 13.4744 23.7 13.1464 24.052C12.8184 24.404 12.3264 24.58 11.6704 24.58H11.0464V28H9.72638V19.6ZM11.6704 23.38C11.8864 23.38 12.0464 23.32 12.1504 23.2C12.2624 23.08 12.3184 22.876 12.3184 22.588V21.592C12.3184 21.304 12.2624 21.1 12.1504 20.98C12.0464 20.86 11.8864 20.8 11.6704 20.8H11.0464V23.38H11.6704ZM16.2633 28.12C15.6153 28.12 15.1193 27.936 14.7753 27.568C14.4313 27.2 14.2593 26.68 14.2593 26.008V21.592C14.2593 20.92 14.4313 20.4 14.7753 20.032C15.1193 19.664 15.6153 19.48 16.2633 19.48C16.9113 19.48 17.4073 19.664 17.7513 20.032C18.0953 20.4 18.2673 20.92 18.2673 21.592V26.008C18.2673 26.68 18.0953 27.2 17.7513 27.568C17.4073 27.936 16.9113 28.12 16.2633 28.12ZM16.2633 26.92C16.7193 26.92 16.9473 26.644 16.9473 26.092V21.508C16.9473 20.956 16.7193 20.68 16.2633 20.68C15.8073 20.68 15.5793 20.956 15.5793 21.508V26.092C15.5793 26.644 15.8073 26.92 16.2633 26.92ZM20.876 28.12C20.236 28.12 19.752 27.94 19.424 27.58C19.096 27.212 18.932 26.688 18.932 26.008V25.528H20.18V26.104C20.18 26.648 20.408 26.92 20.864 26.92C21.088 26.92 21.256 26.856 21.368 26.728C21.488 26.592 21.548 26.376 21.548 26.08C21.548 25.728 21.468 25.42 21.308 25.156C21.148 24.884 20.852 24.56 20.42 24.184C19.876 23.704 19.496 23.272 19.28 22.888C19.064 22.496 18.956 22.056 18.956 21.568C18.956 20.904 19.124 20.392 19.46 20.032C19.796 19.664 20.284 19.48 20.924 19.48C21.556 19.48 22.032 19.664 22.352 20.032C22.68 20.392 22.844 20.912 22.844 21.592V21.94H21.596V21.508C21.596 21.22 21.54 21.012 21.428 20.884C21.316 20.748 21.152 20.68 20.936 20.68C20.496 20.68 20.276 20.948 20.276 21.484C20.276 21.788 20.356 22.072 20.516 22.336C20.684 22.6 20.984 22.92 21.416 23.296C21.968 23.776 22.348 24.212 22.556 24.604C22.764 24.996 22.868 25.456 22.868 25.984C22.868 26.672 22.696 27.2 22.352 27.568C22.016 27.936 21.524 28.12 20.876 28.12ZM23.6248 19.6H24.9448V28H23.6248V19.6ZM25.9334 19.6H27.2534V26.8H29.4254V28H25.9334V19.6ZM30.2157 24.424L28.6197 19.6H30.0237L30.9237 22.684H30.9477L31.8477 19.6H33.1317L31.5357 24.424V28H30.2157V24.424Z" fill="black"/>
</svg>
