<svg width="33" height="18" viewBox="0 0 33 18" fill="none" xmlns="http://www.w3.org/2000/svg">
<path d="M15.5 0V18M18.5 5C18.8905 5.39052 18.9477 5.5 19.5 5.5C20.0523 5.5 19.9477 5 20.5 5C21.0523 5 20.9477 5.5 21.5 5.5C22.0523 5.5 21.9477 5 22.5 5C23.0523 5 22.9477 5.5 23.5 5.5C24.0523 5.5 23.5 5 24.5 5M18.5 9C19.0858 9.19526 19.3825 9.5 20 9.5C20.6175 9.5 20.8887 8.91268 21.5 9C21.9322 9.06175 22.0738 9.40528 22.5 9.5C22.8812 9.58472 23.1188 9.58472 23.5 9.5C23.9262 9.40528 24.0738 9.09472 24.5 9C24.8812 8.91528 25.1188 8.91528 25.5 9C25.9262 9.09472 26.0738 9.40528 26.5 9.5C26.8812 9.58472 27.1188 9.58472 27.5 9.5C27.9262 9.40528 28.0678 9.06175 28.5 9C28.6933 8.97239 28.8067 8.97239 29 9M18.5 12.5C18.8905 12.6953 19.0738 12.9053 19.5 13C19.8812 13.0847 20.1188 13.0847 20.5 13C20.9262 12.9053 21.0634 12.5 21.5 12.5C21.9366 12.5 22.0634 13 22.5 13C22.9366 13 23.1095 12.6953 23.5 12.5C23.8905 12.3047 24.0647 11.9665 24.5 12C25.0507 12.0424 24.9493 12.9576 25.5 13C25.9353 13.0335 26.1095 12.6953 26.5 12.5L27.5 12M29 12.5C29.1953 12.3047 29.238 12.0873 29.5 12C29.9142 11.8619 30.0634 12.5 30.5 12.5C30.9366 12.5 31.0634 12 31.5 12C31.9366 12 32.5 12.5 32.5 12.5M26.5 5.5H27.5C27.8905 5.5 28.1095 5 28.5 5C28.8905 5 29.1188 5.58472 29.5 5.5C29.9262 5.40528 30.0634 5 30.5 5C30.9366 5 31.0738 5.40528 31.5 5.5C31.8812 5.58472 32.1188 5.58472 32.5 5.5M13 5.5V13.5C13 13.5 11.4763 12.5407 10.5 12.5C7.76633 12.3861 6.24531 13.7979 3.5 13.5C2.51016 13.3926 1 13 1 13V5C1 5 2.47566 5.76247 3.5 6C6.00189 6.58015 7.43716 4.83297 10 5C11.1852 5.07725 13 5.5 13 5.5ZM7 8C7.55228 8 8 8.44771 8 9C8 9.55229 7.55228 10 7 10C6.44772 10 6 9.55229 6 9C6 8.44771 6.44772 8 7 8Z" stroke="black" stroke-width="0.5"/>
</svg>
